<svg xmlns="http://www.w3.org/2000/svg" viewBox="0 0 16 16">
  <!-- Gear: 6-tooth body + centre hole via evenodd -->
  <path fill-rule="evenodd" fill="#dde1f0"
        d="M 7,1 L 9,1 L 9.5,3.2
           Q 10.6,3.7 11.4,4.6 L 13.6,3.8 L 14.6,5.6 L 12.8,7
           Q 13,7.5 13,8 Q 13,8.5 12.8,9 L 14.6,10.4 L 13.6,12.2 L 11.4,11.4
           Q 10.6,12.3 9.5,12.8 L 9,15 L 7,15 L 6.5,12.8
           Q 5.4,12.3 4.6,11.4 L 2.4,12.2 L 1.4,10.4 L 3.2,9
           Q 3,8.5 3,8 Q 3,7.5 3.2,7 L 1.4,5.6 L 2.4,3.8 L 4.6,4.6
           Q 5.4,3.7 6.5,3.2 Z
           M 8,10.5 A 2.5,2.5 0 1,0 8,5.5 A 2.5,2.5 0 1,0 8,10.5 Z"/>
</svg>
