<svg xmlns="http://www.w3.org/2000/svg" viewBox="0 0 16 16">
  <!--
    8-tooth gear, centre (8,8), outer_r=7, inner_r=5, tooth_half=12°, hole_r=2.3
    Each tooth: L(inner,start) L(outer,start) L(outer,end) L(inner,end)
    fill-rule="evenodd" cuts the centre hole out.
  -->
  <path fill-rule="evenodd" fill="#dde1f0" d="
    M 12.89,6.96
    L 14.85,6.55 L 14.85,9.46 L 12.89,9.04
    L 12.19,10.72 L 13.87,11.81 L 11.81,13.87 L 10.72,12.19
    L 9.04,12.89 L 9.46,14.85 L 6.55,14.85 L 6.96,12.89
    L 5.28,12.19 L 4.19,13.87 L 2.13,11.81 L 3.81,10.72
    L 3.11,9.04 L 1.15,9.46 L 1.15,6.55 L 3.11,6.96
    L 3.81,5.28 L 2.13,4.19 L 4.19,2.13 L 5.28,3.81
    L 6.96,3.11 L 6.55,1.15 L 9.46,1.15 L 9.04,3.11
    L 10.72,3.81 L 11.81,2.13 L 13.87,4.19 L 12.19,5.28
    Z
    M 10.3,8 A 2.3,2.3 0 1,0 5.7,8 A 2.3,2.3 0 1,0 10.3,8 Z"/>
</svg>
